<svg xmlns="http://www.w3.org/2000/svg" viewBox="0 0 660 400" role="img" aria-label="A level balance scale holding an equal weight on each side">
  <text x="330" y="44" text-anchor="middle" font-family="Inter, Verdana, sans-serif" font-size="23" font-weight="600" fill="#8b8f9c">Both sides stay equal</text>

  <g stroke="#6366f1" stroke-width="4" stroke-linejoin="round" stroke-linecap="round">
    <line x1="80" y1="348" x2="580" y2="348"/>
    <polygon points="330,170 288,346 372,346" fill="#6366f1" fill-opacity="0.12"/>
    <line x1="330" y1="122" x2="330" y2="172"/>
    <rect x="150" y="112" width="360" height="18" rx="9" fill="#6366f1" fill-opacity="0.85"/>
    <circle cx="330" cy="121" r="15" fill="#6366f1" fill-opacity="0.30"/>

    <line x1="160" y1="128" x2="120" y2="230" stroke-width="3"/>
    <line x1="160" y1="128" x2="200" y2="230" stroke-width="3"/>
    <path d="M106 230 H214 L196 266 H124 Z" fill="#6366f1" fill-opacity="0.12"/>
    <rect x="138" y="186" width="44" height="44" rx="9" fill="#6366f1" fill-opacity="0.85"/>

    <line x1="500" y1="128" x2="460" y2="230" stroke-width="3"/>
    <line x1="500" y1="128" x2="540" y2="230" stroke-width="3"/>
    <path d="M446 230 H554 L536 266 H464 Z" fill="#6366f1" fill-opacity="0.12"/>
    <rect x="478" y="186" width="44" height="44" rx="9" fill="#6366f1" fill-opacity="0.85"/>
  </g>

  <rect x="300" y="247" width="60" height="12" rx="6" fill="#6366f1"/>
  <rect x="300" y="270" width="60" height="12" rx="6" fill="#6366f1"/>

  <text x="160" y="300" text-anchor="middle" font-family="Inter, Verdana, sans-serif" font-size="18" font-weight="600" fill="#8b8f9c">Left side</text>
  <text x="500" y="300" text-anchor="middle" font-family="Inter, Verdana, sans-serif" font-size="18" font-weight="600" fill="#8b8f9c">Right side</text>
</svg>
