<svg xmlns="http://www.w3.org/2000/svg" viewBox="0 0 808 382" role="img" aria-label="Two 10 by 10 grids, one full and one half full">
  <rect x="14" y="14" width="30" height="30" rx="5" fill="#6366f1"/>
  <rect x="50" y="14" width="30" height="30" rx="5" fill="#6366f1"/>
  <rect x="86" y="14" width="30" height="30" rx="5" fill="#6366f1"/>
  <rect x="122" y="14" width="30" height="30" rx="5" fill="#6366f1"/>
  <rect x="158" y="14" width="30" height="30" rx="5" fill="#6366f1"/>
  <rect x="194" y="14" width="30" height="30" rx="5" fill="#6366f1"/>
  <rect x="230" y="14" width="30" height="30" rx="5" fill="#6366f1"/>
  <rect x="266" y="14" width="30" height="30" rx="5" fill="#6366f1"/>
  <rect x="302" y="14" width="30" height="30" rx="5" fill="#6366f1"/>
  <rect x="338" y="14" width="30" height="30" rx="5" fill="#6366f1"/>
  <rect x="14" y="50" width="30" height="30" rx="5" fill="#6366f1"/>
  <rect x="50" y="50" width="30" height="30" rx="5" fill="#6366f1"/>
  <rect x="86" y="50" width="30" height="30" rx="5" fill="#6366f1"/>
  <rect x="122" y="50" width="30" height="30" rx="5" fill="#6366f1"/>
  <rect x="158" y="50" width="30" height="30" rx="5" fill="#6366f1"/>
  <rect x="194" y="50" width="30" height="30" rx="5" fill="#6366f1"/>
  <rect x="230" y="50" width="30" height="30" rx="5" fill="#6366f1"/>
  <rect x="266" y="50" width="30" height="30" rx="5" fill="#6366f1"/>
  <rect x="302" y="50" width="30" height="30" rx="5" fill="#6366f1"/>
  <rect x="338" y="50" width="30" height="30" rx="5" fill="#6366f1"/>
  <rect x="14" y="86" width="30" height="30" rx="5" fill="#6366f1"/>
  <rect x="50" y="86" width="30" height="30" rx="5" fill="#6366f1"/>
  <rect x="86" y="86" width="30" height="30" rx="5" fill="#6366f1"/>
  <rect x="122" y="86" width="30" height="30" rx="5" fill="#6366f1"/>
  <rect x="158" y="86" width="30" height="30" rx="5" fill="#6366f1"/>
  <rect x="194" y="86" width="30" height="30" rx="5" fill="#6366f1"/>
  <rect x="230" y="86" width="30" height="30" rx="5" fill="#6366f1"/>
  <rect x="266" y="86" width="30" height="30" rx="5" fill="#6366f1"/>
  <rect x="302" y="86" width="30" height="30" rx="5" fill="#6366f1"/>
  <rect x="338" y="86" width="30" height="30" rx="5" fill="#6366f1"/>
  <rect x="14" y="122" width="30" height="30" rx="5" fill="#6366f1"/>
  <rect x="50" y="122" width="30" height="30" rx="5" fill="#6366f1"/>
  <rect x="86" y="122" width="30" height="30" rx="5" fill="#6366f1"/>
  <rect x="122" y="122" width="30" height="30" rx="5" fill="#6366f1"/>
  <rect x="158" y="122" width="30" height="30" rx="5" fill="#6366f1"/>
  <rect x="194" y="122" width="30" height="30" rx="5" fill="#6366f1"/>
  <rect x="230" y="122" width="30" height="30" rx="5" fill="#6366f1"/>
  <rect x="266" y="122" width="30" height="30" rx="5" fill="#6366f1"/>
  <rect x="302" y="122" width="30" height="30" rx="5" fill="#6366f1"/>
  <rect x="338" y="122" width="30" height="30" rx="5" fill="#6366f1"/>
  <rect x="14" y="158" width="30" height="30" rx="5" fill="#6366f1"/>
  <rect x="50" y="158" width="30" height="30" rx="5" fill="#6366f1"/>
  <rect x="86" y="158" width="30" height="30" rx="5" fill="#6366f1"/>
  <rect x="122" y="158" width="30" height="30" rx="5" fill="#6366f1"/>
  <rect x="158" y="158" width="30" height="30" rx="5" fill="#6366f1"/>
  <rect x="194" y="158" width="30" height="30" rx="5" fill="#6366f1"/>
  <rect x="230" y="158" width="30" height="30" rx="5" fill="#6366f1"/>
  <rect x="266" y="158" width="30" height="30" rx="5" fill="#6366f1"/>
  <rect x="302" y="158" width="30" height="30" rx="5" fill="#6366f1"/>
  <rect x="338" y="158" width="30" height="30" rx="5" fill="#6366f1"/>
  <rect x="14" y="194" width="30" height="30" rx="5" fill="#6366f1"/>
  <rect x="50" y="194" width="30" height="30" rx="5" fill="#6366f1"/>
  <rect x="86" y="194" width="30" height="30" rx="5" fill="#6366f1"/>
  <rect x="122" y="194" width="30" height="30" rx="5" fill="#6366f1"/>
  <rect x="158" y="194" width="30" height="30" rx="5" fill="#6366f1"/>
  <rect x="194" y="194" width="30" height="30" rx="5" fill="#6366f1"/>
  <rect x="230" y="194" width="30" height="30" rx="5" fill="#6366f1"/>
  <rect x="266" y="194" width="30" height="30" rx="5" fill="#6366f1"/>
  <rect x="302" y="194" width="30" height="30" rx="5" fill="#6366f1"/>
  <rect x="338" y="194" width="30" height="30" rx="5" fill="#6366f1"/>
  <rect x="14" y="230" width="30" height="30" rx="5" fill="#6366f1"/>
  <rect x="50" y="230" width="30" height="30" rx="5" fill="#6366f1"/>
  <rect x="86" y="230" width="30" height="30" rx="5" fill="#6366f1"/>
  <rect x="122" y="230" width="30" height="30" rx="5" fill="#6366f1"/>
  <rect x="158" y="230" width="30" height="30" rx="5" fill="#6366f1"/>
  <rect x="194" y="230" width="30" height="30" rx="5" fill="#6366f1"/>
  <rect x="230" y="230" width="30" height="30" rx="5" fill="#6366f1"/>
  <rect x="266" y="230" width="30" height="30" rx="5" fill="#6366f1"/>
  <rect x="302" y="230" width="30" height="30" rx="5" fill="#6366f1"/>
  <rect x="338" y="230" width="30" height="30" rx="5" fill="#6366f1"/>
  <rect x="14" y="266" width="30" height="30" rx="5" fill="#6366f1"/>
  <rect x="50" y="266" width="30" height="30" rx="5" fill="#6366f1"/>
  <rect x="86" y="266" width="30" height="30" rx="5" fill="#6366f1"/>
  <rect x="122" y="266" width="30" height="30" rx="5" fill="#6366f1"/>
  <rect x="158" y="266" width="30" height="30" rx="5" fill="#6366f1"/>
  <rect x="194" y="266" width="30" height="30" rx="5" fill="#6366f1"/>
  <rect x="230" y="266" width="30" height="30" rx="5" fill="#6366f1"/>
  <rect x="266" y="266" width="30" height="30" rx="5" fill="#6366f1"/>
  <rect x="302" y="266" width="30" height="30" rx="5" fill="#6366f1"/>
  <rect x="338" y="266" width="30" height="30" rx="5" fill="#6366f1"/>
  <rect x="14" y="302" width="30" height="30" rx="5" fill="#6366f1"/>
  <rect x="50" y="302" width="30" height="30" rx="5" fill="#6366f1"/>
  <rect x="86" y="302" width="30" height="30" rx="5" fill="#6366f1"/>
  <rect x="122" y="302" width="30" height="30" rx="5" fill="#6366f1"/>
  <rect x="158" y="302" width="30" height="30" rx="5" fill="#6366f1"/>
  <rect x="194" y="302" width="30" height="30" rx="5" fill="#6366f1"/>
  <rect x="230" y="302" width="30" height="30" rx="5" fill="#6366f1"/>
  <rect x="266" y="302" width="30" height="30" rx="5" fill="#6366f1"/>
  <rect x="302" y="302" width="30" height="30" rx="5" fill="#6366f1"/>
  <rect x="338" y="302" width="30" height="30" rx="5" fill="#6366f1"/>
  <rect x="14" y="338" width="30" height="30" rx="5" fill="#6366f1"/>
  <rect x="50" y="338" width="30" height="30" rx="5" fill="#6366f1"/>
  <rect x="86" y="338" width="30" height="30" rx="5" fill="#6366f1"/>
  <rect x="122" y="338" width="30" height="30" rx="5" fill="#6366f1"/>
  <rect x="158" y="338" width="30" height="30" rx="5" fill="#6366f1"/>
  <rect x="194" y="338" width="30" height="30" rx="5" fill="#6366f1"/>
  <rect x="230" y="338" width="30" height="30" rx="5" fill="#6366f1"/>
  <rect x="266" y="338" width="30" height="30" rx="5" fill="#6366f1"/>
  <rect x="302" y="338" width="30" height="30" rx="5" fill="#6366f1"/>
  <rect x="338" y="338" width="30" height="30" rx="5" fill="#6366f1"/>
  <rect x="440" y="14" width="30" height="30" rx="5" fill="#c8ccd6"/>
  <rect x="476" y="14" width="30" height="30" rx="5" fill="#c8ccd6"/>
  <rect x="512" y="14" width="30" height="30" rx="5" fill="#c8ccd6"/>
  <rect x="548" y="14" width="30" height="30" rx="5" fill="#c8ccd6"/>
  <rect x="584" y="14" width="30" height="30" rx="5" fill="#c8ccd6"/>
  <rect x="620" y="14" width="30" height="30" rx="5" fill="#c8ccd6"/>
  <rect x="656" y="14" width="30" height="30" rx="5" fill="#c8ccd6"/>
  <rect x="692" y="14" width="30" height="30" rx="5" fill="#c8ccd6"/>
  <rect x="728" y="14" width="30" height="30" rx="5" fill="#c8ccd6"/>
  <rect x="764" y="14" width="30" height="30" rx="5" fill="#c8ccd6"/>
  <rect x="440" y="50" width="30" height="30" rx="5" fill="#c8ccd6"/>
  <rect x="476" y="50" width="30" height="30" rx="5" fill="#c8ccd6"/>
  <rect x="512" y="50" width="30" height="30" rx="5" fill="#c8ccd6"/>
  <rect x="548" y="50" width="30" height="30" rx="5" fill="#c8ccd6"/>
  <rect x="584" y="50" width="30" height="30" rx="5" fill="#c8ccd6"/>
  <rect x="620" y="50" width="30" height="30" rx="5" fill="#c8ccd6"/>
  <rect x="656" y="50" width="30" height="30" rx="5" fill="#c8ccd6"/>
  <rect x="692" y="50" width="30" height="30" rx="5" fill="#c8ccd6"/>
  <rect x="728" y="50" width="30" height="30" rx="5" fill="#c8ccd6"/>
  <rect x="764" y="50" width="30" height="30" rx="5" fill="#c8ccd6"/>
  <rect x="440" y="86" width="30" height="30" rx="5" fill="#c8ccd6"/>
  <rect x="476" y="86" width="30" height="30" rx="5" fill="#c8ccd6"/>
  <rect x="512" y="86" width="30" height="30" rx="5" fill="#c8ccd6"/>
  <rect x="548" y="86" width="30" height="30" rx="5" fill="#c8ccd6"/>
  <rect x="584" y="86" width="30" height="30" rx="5" fill="#c8ccd6"/>
  <rect x="620" y="86" width="30" height="30" rx="5" fill="#c8ccd6"/>
  <rect x="656" y="86" width="30" height="30" rx="5" fill="#c8ccd6"/>
  <rect x="692" y="86" width="30" height="30" rx="5" fill="#c8ccd6"/>
  <rect x="728" y="86" width="30" height="30" rx="5" fill="#c8ccd6"/>
  <rect x="764" y="86" width="30" height="30" rx="5" fill="#c8ccd6"/>
  <rect x="440" y="122" width="30" height="30" rx="5" fill="#c8ccd6"/>
  <rect x="476" y="122" width="30" height="30" rx="5" fill="#c8ccd6"/>
  <rect x="512" y="122" width="30" height="30" rx="5" fill="#c8ccd6"/>
  <rect x="548" y="122" width="30" height="30" rx="5" fill="#c8ccd6"/>
  <rect x="584" y="122" width="30" height="30" rx="5" fill="#c8ccd6"/>
  <rect x="620" y="122" width="30" height="30" rx="5" fill="#c8ccd6"/>
  <rect x="656" y="122" width="30" height="30" rx="5" fill="#c8ccd6"/>
  <rect x="692" y="122" width="30" height="30" rx="5" fill="#c8ccd6"/>
  <rect x="728" y="122" width="30" height="30" rx="5" fill="#c8ccd6"/>
  <rect x="764" y="122" width="30" height="30" rx="5" fill="#c8ccd6"/>
  <rect x="440" y="158" width="30" height="30" rx="5" fill="#c8ccd6"/>
  <rect x="476" y="158" width="30" height="30" rx="5" fill="#c8ccd6"/>
  <rect x="512" y="158" width="30" height="30" rx="5" fill="#c8ccd6"/>
  <rect x="548" y="158" width="30" height="30" rx="5" fill="#c8ccd6"/>
  <rect x="584" y="158" width="30" height="30" rx="5" fill="#c8ccd6"/>
  <rect x="620" y="158" width="30" height="30" rx="5" fill="#c8ccd6"/>
  <rect x="656" y="158" width="30" height="30" rx="5" fill="#c8ccd6"/>
  <rect x="692" y="158" width="30" height="30" rx="5" fill="#c8ccd6"/>
  <rect x="728" y="158" width="30" height="30" rx="5" fill="#c8ccd6"/>
  <rect x="764" y="158" width="30" height="30" rx="5" fill="#c8ccd6"/>
  <rect x="440" y="194" width="30" height="30" rx="5" fill="#6366f1"/>
  <rect x="476" y="194" width="30" height="30" rx="5" fill="#6366f1"/>
  <rect x="512" y="194" width="30" height="30" rx="5" fill="#6366f1"/>
  <rect x="548" y="194" width="30" height="30" rx="5" fill="#6366f1"/>
  <rect x="584" y="194" width="30" height="30" rx="5" fill="#6366f1"/>
  <rect x="620" y="194" width="30" height="30" rx="5" fill="#6366f1"/>
  <rect x="656" y="194" width="30" height="30" rx="5" fill="#6366f1"/>
  <rect x="692" y="194" width="30" height="30" rx="5" fill="#6366f1"/>
  <rect x="728" y="194" width="30" height="30" rx="5" fill="#6366f1"/>
  <rect x="764" y="194" width="30" height="30" rx="5" fill="#6366f1"/>
  <rect x="440" y="230" width="30" height="30" rx="5" fill="#6366f1"/>
  <rect x="476" y="230" width="30" height="30" rx="5" fill="#6366f1"/>
  <rect x="512" y="230" width="30" height="30" rx="5" fill="#6366f1"/>
  <rect x="548" y="230" width="30" height="30" rx="5" fill="#6366f1"/>
  <rect x="584" y="230" width="30" height="30" rx="5" fill="#6366f1"/>
  <rect x="620" y="230" width="30" height="30" rx="5" fill="#6366f1"/>
  <rect x="656" y="230" width="30" height="30" rx="5" fill="#6366f1"/>
  <rect x="692" y="230" width="30" height="30" rx="5" fill="#6366f1"/>
  <rect x="728" y="230" width="30" height="30" rx="5" fill="#6366f1"/>
  <rect x="764" y="230" width="30" height="30" rx="5" fill="#6366f1"/>
  <rect x="440" y="266" width="30" height="30" rx="5" fill="#6366f1"/>
  <rect x="476" y="266" width="30" height="30" rx="5" fill="#6366f1"/>
  <rect x="512" y="266" width="30" height="30" rx="5" fill="#6366f1"/>
  <rect x="548" y="266" width="30" height="30" rx="5" fill="#6366f1"/>
  <rect x="584" y="266" width="30" height="30" rx="5" fill="#6366f1"/>
  <rect x="620" y="266" width="30" height="30" rx="5" fill="#6366f1"/>
  <rect x="656" y="266" width="30" height="30" rx="5" fill="#6366f1"/>
  <rect x="692" y="266" width="30" height="30" rx="5" fill="#6366f1"/>
  <rect x="728" y="266" width="30" height="30" rx="5" fill="#6366f1"/>
  <rect x="764" y="266" width="30" height="30" rx="5" fill="#6366f1"/>
  <rect x="440" y="302" width="30" height="30" rx="5" fill="#6366f1"/>
  <rect x="476" y="302" width="30" height="30" rx="5" fill="#6366f1"/>
  <rect x="512" y="302" width="30" height="30" rx="5" fill="#6366f1"/>
  <rect x="548" y="302" width="30" height="30" rx="5" fill="#6366f1"/>
  <rect x="584" y="302" width="30" height="30" rx="5" fill="#6366f1"/>
  <rect x="620" y="302" width="30" height="30" rx="5" fill="#6366f1"/>
  <rect x="656" y="302" width="30" height="30" rx="5" fill="#6366f1"/>
  <rect x="692" y="302" width="30" height="30" rx="5" fill="#6366f1"/>
  <rect x="728" y="302" width="30" height="30" rx="5" fill="#6366f1"/>
  <rect x="764" y="302" width="30" height="30" rx="5" fill="#6366f1"/>
  <rect x="440" y="338" width="30" height="30" rx="5" fill="#6366f1"/>
  <rect x="476" y="338" width="30" height="30" rx="5" fill="#6366f1"/>
  <rect x="512" y="338" width="30" height="30" rx="5" fill="#6366f1"/>
  <rect x="548" y="338" width="30" height="30" rx="5" fill="#6366f1"/>
  <rect x="584" y="338" width="30" height="30" rx="5" fill="#6366f1"/>
  <rect x="620" y="338" width="30" height="30" rx="5" fill="#6366f1"/>
  <rect x="656" y="338" width="30" height="30" rx="5" fill="#6366f1"/>
  <rect x="692" y="338" width="30" height="30" rx="5" fill="#6366f1"/>
  <rect x="728" y="338" width="30" height="30" rx="5" fill="#6366f1"/>
  <rect x="764" y="338" width="30" height="30" rx="5" fill="#6366f1"/>
</svg>
